<svg width="32" height="32" viewBox="0 0 32 32" fill="none" xmlns="http://www.w3.org/2000/svg">
<path d="M13.5 3H7.5C6.672 3 6 3.672 6 4.5V27.5C6 28.328 6.672 29 7.5 29H24.5C25.328 29 26 28.328 26 27.5V15.5M13.5 3H14C17.1826 3 20.2348 4.26428 22.4853 6.51472C24.7357 8.76516 26 11.8174 26 15V15.5M13.5 3C14.6935 3 15.8381 3.47411 16.682 4.31802C17.5259 5.16193 18 6.30653 18 7.5V9.5C18 10.328 18.672 11 19.5 11H21.5C22.6935 11 23.8381 11.4741 24.682 12.318C25.5259 13.1619 26 14.3065 26 15.5M12 20L15 23L20 16" stroke="#c2e7d9" stroke-width="2" stroke-linecap="round" stroke-linejoin="round"/>
</svg>
